<svg xmlns="http://www.w3.org/2000/svg" xmlns:svg="http://www.w3.org/2000/svg" id="svg839" width="24" height="24" version="1.1" viewBox="0 0 24 24"><metadata id="metadata845"/><path id="path833" fill="#db6400" d="m.04748073 12.036694 6.45007827 2.302326-2.93903 6.20642 6.1828614-2.950075 2.2937486 6.473969 2.293749-6.473969 6.182862 2.950075-2.939031-6.20642 6.450078-2.302326-6.450078-2.3023244 2.939031-6.2064202-6.182862 2.9500739-2.293749-6.4748487-2.2937486 6.4748487-6.1828614-2.9500739 2.93903 6.2064202z"/><circle id="circle835" cx="12.051" cy="12.244" r="4.933" fill="#ffbf00" fill-rule="evenodd"/><path id="path837" stroke-width="1.386" d="m 16.682886,13.006384 q -0.381908,0 -0.774142,-0.12501 -0.381908,-0.125011 -0.701887,-0.339311 -0.309657,-0.214302 -0.505772,-0.500037 -0.196117,-0.294666 -0.196117,-0.633977 0,-0.357169 0.175478,-0.633975 0.18579,-0.276807 0.485129,-0.455392 0.299335,-0.187513 0.691563,-0.276805 0.392233,-0.09822 0.825752,-0.09822 0.505772,0 0.918647,0.0893 0.412875,0.08036 0.71221,0.250018 0.299335,0.160727 0.464484,0.419674 0.165145,0.250018 0.165145,0.58933 0,0.366098 -0.196113,0.678621 -0.18579,0.312525 -0.505773,0.544684 -0.309657,0.223231 -0.722532,0.357169 -0.402552,0.133938 -0.836071,0.133938 z m -3.581692,10.17933 1.682467,-0.526823 q 0.185788,-0.06251 0.299332,-0.142865 0.113541,-0.08927 0.113541,-0.267877 v -5.929012 q 0,-0.178585 -0.123856,-0.267877 -0.113541,-0.0893 -0.278693,-0.142866 L 13.121844,15.336923 V 14.488647 L 18.59244,14.31006 v 7.938094 q 0,0.178584 0.123842,0.276806 0.12387,0.08928 0.268371,0.133938 l 1.682464,0.526824 v 0.82149 h -7.565923 z"/></svg>